<svg width="960" height="840" viewBox="0 0 960 840" fill="none" xmlns="http://www.w3.org/2000/svg">
  <rect width="960" height="840" rx="48" fill="url(#bg)"/>
  <rect x="72" y="88" width="816" height="664" rx="40" fill="url(#panel)" stroke="#D8E7F2"/>
  <g opacity="0.8">
    <circle cx="178" cy="186" r="78" fill="#DFF7F4"/>
    <circle cx="780" cy="176" r="104" fill="#E4F2FF"/>
    <circle cx="776" cy="654" r="126" fill="#EAF8F5"/>
  </g>
  <g opacity="0.45" stroke="#B9D4E6">
    <path d="M124 230H836"/>
    <path d="M124 432H836"/>
    <path d="M124 634H836"/>
    <path d="M286 120V720"/>
    <path d="M490 120V720"/>
    <path d="M694 120V720"/>
  </g>
  <g>
    <rect x="134" y="140" width="272" height="548" rx="30" fill="#FDFEFF" stroke="#D8E7F2"/>
    <rect x="446" y="140" width="380" height="166" rx="30" fill="#FDFEFF" stroke="#D8E7F2"/>
    <rect x="446" y="336" width="380" height="150" rx="30" fill="#FDFEFF" stroke="#D8E7F2"/>
    <rect x="446" y="516" width="380" height="130" rx="30" fill="#FDFEFF" stroke="#D8E7F2"/>
  </g>
  <g>
    <rect x="174" y="184" width="170" height="14" rx="7" fill="#77C4FF"/>
    <rect x="174" y="216" width="110" height="10" rx="5" fill="#A7BFCE"/>
    <path d="M202 422C202 384 232 354 270 354H290C332 354 366 388 366 430V470H334V438C334 411 312 390 285 390H273C246 390 224 412 224 439V470H202V422Z" fill="#CFE7F6"/>
    <path d="M226 414C232 386 256 366 286 366C307 366 326 376 338 392L362 370C368 364 378 365 383 372C388 378 387 388 381 393L355 418C357 425 358 432 358 440V466H332V440C332 416 312 396 288 396C264 396 244 416 244 440V466H218V440C218 431 221 422 226 414Z" fill="#79DCCB"/>
    <circle cx="282" cy="446" r="54" stroke="#0B8FB3" stroke-width="12"/>
    <path d="M264 446L276 458L301 432" stroke="#0B8FB3" stroke-width="10" stroke-linecap="round" stroke-linejoin="round"/>
    <rect x="174" y="560" width="146" height="14" rx="7" fill="#2CD6C4"/>
    <rect x="174" y="592" width="178" height="10" rx="5" fill="#A7BFCE"/>
  </g>
  <g>
    <rect x="482" y="180" width="114" height="12" rx="6" fill="#2CD6C4"/>
    <rect x="482" y="210" width="188" height="10" rx="5" fill="#A7BFCE"/>
    <rect x="482" y="246" width="286" height="18" rx="9" fill="#EAF4FB"/>
    <rect x="482" y="246" width="194" height="18" rx="9" fill="#77C4FF"/>
    <rect x="482" y="376" width="132" height="12" rx="6" fill="#77C4FF"/>
    <rect x="482" y="406" width="238" height="10" rx="5" fill="#A7BFCE"/>
    <g stroke="#0B8FB3" stroke-width="8" stroke-linecap="round">
      <path d="M640 436C666 404 711 400 742 427"/>
      <path d="M742 427C768 451 771 493 748 520"/>
      <path d="M748 520C722 549 676 554 645 530"/>
      <path d="M645 530C620 507 616 464 640 436"/>
    </g>
    <circle cx="644" cy="434" r="12" fill="#2CD6C4"/>
    <circle cx="744" cy="426" r="12" fill="#77C4FF"/>
    <circle cx="748" cy="522" r="12" fill="#FFD46B"/>
    <circle cx="644" cy="530" r="12" fill="#2CD6C4"/>
    <rect x="482" y="556" width="146" height="12" rx="6" fill="#FFD46B"/>
    <rect x="482" y="586" width="210" height="10" rx="5" fill="#A7BFCE"/>
    <path d="M716 564C731 548 757 547 773 561C789 576 789 602 774 618C759 635 732 636 716 621" stroke="#0B8FB3" stroke-width="8"/>
    <path d="M742 566L753 577L733 599" stroke="#0B8FB3" stroke-width="8" stroke-linecap="round" stroke-linejoin="round"/>
  </g>
  <text x="136" y="792" fill="#17314A" font-family="Inter, Arial, sans-serif" font-size="30" font-weight="700">Canine metabolic therapeutics</text>
  <text x="136" y="824" fill="#5D6B78" font-family="Inter, Arial, sans-serif" font-size="20">Dog-specific peptides • body recomposition • CNADA strategy</text>
  <defs>
    <linearGradient id="bg" x1="0" y1="0" x2="960" y2="840" gradientUnits="userSpaceOnUse">
      <stop stop-color="#FFFFFF"/>
      <stop offset="1" stop-color="#EFF6FB"/>
    </linearGradient>
    <linearGradient id="panel" x1="72" y1="88" x2="888" y2="752" gradientUnits="userSpaceOnUse">
      <stop stop-color="#F9FCFF"/>
      <stop offset="1" stop-color="#EDF5FB"/>
    </linearGradient>
  </defs>
</svg>
